<svg xmlns="http://www.w3.org/2000/svg" xmlns:xlink="http://www.w3.org/1999/xlink" width="25"
    height="29" viewBox="0 0 25 29" fill="none">
    <path
        d="M7.14286 0C8.13058 0 8.92857 0.809961 8.92857 1.8125V3.625H16.0714V1.8125C16.0714 0.809961 16.8694 0 17.8571 0C18.8449 0 19.6429 0.809961 19.6429 1.8125V3.625H22.3214C23.8002 3.625 25 4.84277 25 6.34375V9.0625H0V6.34375C0 4.84277 1.19978 3.625 2.67857 3.625H5.35714V1.8125C5.35714 0.809961 6.15513 0 7.14286 0ZM0 10.875H25V26.2812C25 27.7822 23.8002 29 22.3214 29H2.67857C1.19978 29 0 27.7822 0 26.2812V10.875ZM3.57143 15.4062V17.2188C3.57143 17.7172 3.97321 18.125 4.46429 18.125H6.25C6.74107 18.125 7.14286 17.7172 7.14286 17.2188V15.4062C7.14286 14.9078 6.74107 14.5 6.25 14.5H4.46429C3.97321 14.5 3.57143 14.9078 3.57143 15.4062ZM10.7143 15.4062V17.2188C10.7143 17.7172 11.1161 18.125 11.6071 18.125H13.3929C13.8839 18.125 14.2857 17.7172 14.2857 17.2188V15.4062C14.2857 14.9078 13.8839 14.5 13.3929 14.5H11.6071C11.1161 14.5 10.7143 14.9078 10.7143 15.4062ZM18.75 14.5C18.2589 14.5 17.8571 14.9078 17.8571 15.4062V17.2188C17.8571 17.7172 18.2589 18.125 18.75 18.125H20.5357C21.0268 18.125 21.4286 17.7172 21.4286 17.2188V15.4062C21.4286 14.9078 21.0268 14.5 20.5357 14.5H18.75ZM3.57143 22.6562V24.4688C3.57143 24.9672 3.97321 25.375 4.46429 25.375H6.25C6.74107 25.375 7.14286 24.9672 7.14286 24.4688V22.6562C7.14286 22.1578 6.74107 21.75 6.25 21.75H4.46429C3.97321 21.75 3.57143 22.1578 3.57143 22.6562ZM11.6071 21.75C11.1161 21.75 10.7143 22.1578 10.7143 22.6562V24.4688C10.7143 24.9672 11.1161 25.375 11.6071 25.375H13.3929C13.8839 25.375 14.2857 24.9672 14.2857 24.4688V22.6562C14.2857 22.1578 13.8839 21.75 13.3929 21.75H11.6071ZM17.8571 22.6562V24.4688C17.8571 24.9672 18.2589 25.375 18.75 25.375H20.5357C21.0268 25.375 21.4286 24.9672 21.4286 24.4688V22.6562C21.4286 22.1578 21.0268 21.75 20.5357 21.75H18.75C18.2589 21.75 17.8571 22.1578 17.8571 22.6562Z"
        fill="white" />
</svg>