<svg width="30" height="35" viewBox="0 0 30 35" fill="none" xmlns="http://www.w3.org/2000/svg">
    <path
        d="M14.9998 0C13.8145 0 12.857 0.977539 12.857 2.1875V3.5C7.96857 4.51172 4.28553 8.92773 4.28553 14.2188V15.5039C4.28553 18.7168 3.12705 21.8203 1.03776 24.2266L0.542228 24.7939C-0.0202724 25.4365 -0.154201 26.3594 0.187317 27.1455C0.528835 27.9316 1.29892 28.4375 2.14267 28.4375H27.857C28.7007 28.4375 29.4641 27.9316 29.8123 27.1455C30.1605 26.3594 30.0199 25.4365 29.4574 24.7939L28.9619 24.2266C26.8726 21.8203 25.7141 18.7236 25.7141 15.5039V14.2188C25.7141 8.92773 22.0311 4.51172 17.1427 3.5V2.1875C17.1427 0.977539 16.1851 0 14.9998 0ZM18.0333 33.7217C18.8369 32.9014 19.2855 31.7871 19.2855 30.625H14.9998H10.7141C10.7141 31.7871 11.1628 32.9014 11.9663 33.7217C12.7699 34.542 13.8614 35 14.9998 35C16.1382 35 17.2297 34.542 18.0333 33.7217Z"
        fill="#4B4B4B" />
</svg>