<svg width="35" height="35" viewBox="0 0 38 38" fill="none" xmlns="http://www.w3.org/2000/svg">
    <path
        d="M32.9833 4.1117L33.8883 5.01668C34.5913 5.71973 34.5913 6.85657 33.8883 7.55213L31.7119 9.73606L28.2639 6.28815L30.4404 4.1117C31.1434 3.40865 32.2803 3.40865 32.9758 4.1117H32.9833ZM15.6914 18.8682L25.7285 8.8236L29.1764 12.2715L19.1318 22.3086C18.9149 22.5255 18.6457 22.6826 18.354 22.7648L13.9786 24.0139L15.2277 19.6385C15.3099 19.3468 15.467 19.0776 15.6839 18.8607L15.6914 18.8682ZM27.9049 1.57624L13.1485 16.3252C12.4978 16.9759 12.0266 17.7762 11.7798 18.6513L9.6407 26.1305C9.4612 26.7587 9.63322 27.4319 10.0969 27.8956C10.5606 28.3593 11.2338 28.5313 11.862 28.3518L19.3412 26.2128C20.2238 25.9585 21.0241 25.4873 21.6673 24.8441L36.4238 10.0951C38.5254 7.99341 38.5254 4.58289 36.4238 2.48123L35.5188 1.57624C33.4171 -0.525414 30.0066 -0.525414 27.9049 1.57624ZM6.5817 4.49314C2.94681 4.49314 0 7.43994 0 11.0748V31.4183C0 35.0532 2.94681 38 6.5817 38H26.9252C30.5601 38 33.5069 35.0532 33.5069 31.4183V23.0416C33.5069 22.0468 32.7066 21.2466 31.7119 21.2466C30.7171 21.2466 29.9168 22.0468 29.9168 23.0416V31.4183C29.9168 33.0712 28.5781 34.41 26.9252 34.41H6.5817C4.9288 34.41 3.59002 33.0712 3.59002 31.4183V11.0748C3.59002 9.42193 4.9288 8.08316 6.5817 8.08316H14.9584C15.9532 8.08316 16.7534 7.28288 16.7534 6.28815C16.7534 5.29341 15.9532 4.49314 14.9584 4.49314H6.5817Z"
        fill="black" />
</svg>