<svg width="29" height="25" viewBox="0 0 29 25" fill="none" xmlns="http://www.w3.org/2000/svg">
    <path
        d="M28.9908 12.4756C28.9908 13.3545 28.2355 14.043 27.3796 14.043H25.7685L25.8038 21.8652C25.8038 21.9971 25.7937 22.1289 25.7786 22.2607V23.0518C25.7786 24.1309 24.8774 25.0049 23.7647 25.0049H22.9592C22.9038 25.0049 22.8484 25.0049 22.793 25C22.7225 25.0049 22.652 25.0049 22.5816 25.0049L20.9453 25H19.7369C18.6243 25 17.723 24.126 17.723 23.0469V21.875V18.75C17.723 17.8857 17.0031 17.1875 16.1119 17.1875H12.8897C11.9986 17.1875 11.2786 17.8857 11.2786 18.75V21.875V23.0469C11.2786 24.126 10.3774 25 9.26471 25H8.05638H6.4503C6.37478 25 6.29926 24.9951 6.22374 24.9902C6.16332 24.9951 6.10291 25 6.04249 25H5.23694C4.12426 25 3.22305 24.126 3.22305 23.0469V17.5781C3.22305 17.5342 3.22305 17.4854 3.22808 17.4414V14.0381H1.61697C0.71072 14.0381 0.00585938 13.3545 0.00585938 12.4707C0.00585938 12.0313 0.156901 11.6406 0.509332 11.2988L13.4133 0.390625C13.7658 0.0488281 14.1685 0 14.521 0C14.8734 0 15.2762 0.0976563 15.5783 0.341797L28.4369 11.3037C28.8397 11.6455 29.0411 12.0361 28.9908 12.4756Z"
        fill="#4B4B4B" />
</svg>