<svg width="34" height="32" viewBox="0 0 34 32" fill="none" xmlns="http://www.w3.org/2000/svg">
    <path
        d="M18.8063 1.125C18.4751 0.4375 17.7751 0 17.0063 0C16.2376 0 15.5438 0.4375 15.2063 1.125L11.1876 9.39375L2.21256 10.7188C1.46256 10.8312 0.837561 11.3562 0.606311 12.075C0.375061 12.7937 0.562561 13.5875 1.10006 14.1187L7.61256 20.5625L6.07506 29.6688C5.95006 30.4188 6.26256 31.1813 6.88131 31.625C7.50006 32.0687 8.31881 32.125 8.99381 31.7687L17.0126 27.4875L25.0313 31.7687C25.7063 32.125 26.5251 32.075 27.1438 31.625C27.7626 31.175 28.0751 30.4188 27.9501 29.6688L26.4063 20.5625L32.9188 14.1187C33.4563 13.5875 33.6501 12.7937 33.4126 12.075C33.1751 11.3562 32.5563 10.8312 31.8063 10.7188L22.8251 9.39375L18.8063 1.125Z"
        fill="#4B4B4B" />
</svg>