<svg width="30" height="27" viewBox="0 0 30 27" fill="none" xmlns="http://www.w3.org/2000/svg">
    <path
        d="M8.91211 1.23829C9.49219 1.75977 9.53906 2.64454 9.01758 3.22461L4.79883 7.91212C4.54102 8.19922 4.17773 8.36915 3.79102 8.375C3.4043 8.38086 3.03516 8.23438 2.75977 7.96485L0.410156 5.6211C-0.134766 5.07032 -0.134766 4.17969 0.410156 3.62891C0.955078 3.07813 1.85156 3.07813 2.39648 3.62891L3.69141 4.92383L6.91992 1.3379C7.44141 0.757818 8.32617 0.710943 8.90625 1.23243L8.91211 1.23829ZM8.91211 10.6133C9.49219 11.1348 9.53906 12.0195 9.01758 12.5996L4.79883 17.2871C4.54102 17.5742 4.17773 17.7441 3.79102 17.75C3.4043 17.7559 3.03516 17.6094 2.75977 17.3398L0.410156 14.9961C-0.140625 14.4453 -0.140625 13.5547 0.410156 13.0098C0.960937 12.4648 1.85156 12.459 2.39648 13.0098L3.69141 14.3047L6.91992 10.7188C7.44141 10.1387 8.32617 10.0918 8.90625 10.6133H8.91211ZM13.125 4.62501C13.125 3.5879 13.9629 2.75001 15 2.75001H28.125C29.1621 2.75001 30 3.5879 30 4.62501C30 5.66212 29.1621 6.50001 28.125 6.50001H15C13.9629 6.50001 13.125 5.66212 13.125 4.62501ZM13.125 14C13.125 12.9629 13.9629 12.125 15 12.125H28.125C29.1621 12.125 30 12.9629 30 14C30 15.0371 29.1621 15.875 28.125 15.875H15C13.9629 15.875 13.125 15.0371 13.125 14ZM9.375 23.375C9.375 22.3379 10.2129 21.5 11.25 21.5H28.125C29.1621 21.5 30 22.3379 30 23.375C30 24.4121 29.1621 25.25 28.125 25.25H11.25C10.2129 25.25 9.375 24.4121 9.375 23.375ZM2.8125 20.5625C3.55842 20.5625 4.27379 20.8588 4.80124 21.3863C5.32868 21.9137 5.625 22.6291 5.625 23.375C5.625 24.1209 5.32868 24.8363 4.80124 25.3637C4.27379 25.8912 3.55842 26.1875 2.8125 26.1875C2.06658 26.1875 1.35121 25.8912 0.823762 25.3637C0.296316 24.8363 -1.67638e-08 24.1209 -1.67638e-08 23.375C-1.67638e-08 22.6291 0.296316 21.9137 0.823762 21.3863C1.35121 20.8588 2.06658 20.5625 2.8125 20.5625Z"
        fill="#4B4B4B" />
</svg>