<svg width="35" height="35" viewBox="0 0 28 33" fill="none" xmlns="http://www.w3.org/2000/svg">
    <path
        d="M8.45 1.14082L8 2.0625H2C0.89375 2.0625 0 2.98418 0 4.125C0 5.26582 0.89375 6.1875 2 6.1875H26C27.1063 6.1875 28 5.26582 28 4.125C28 2.98418 27.1063 2.0625 26 2.0625H20L19.55 1.14082C19.2125 0.438281 18.5188 0 17.7625 0H10.2375C9.48125 0 8.7875 0.438281 8.45 1.14082ZM26 8.25H2L3.325 30.0996C3.425 31.7303 4.7375 33 6.31875 33H21.6812C23.2625 33 24.575 31.7303 24.675 30.0996L26 8.25Z"
        fill="#FF0000" />
</svg>